<mxfile host="app.diagrams.net" modified="2023-01-09T19:04:31.283Z" agent="5.0 (Windows NT 10.0; Win64; x64) AppleWebKit/537.36 (KHTML, like Gecko) Chrome/108.0.0.0 Safari/537.36" etag="wTqP0svZzwp7d6B_bUtR" version="20.8.3" type="github">
  <diagram name="Page-1" id="ad52d381-51e7-2e0d-a935-2d0ddd2fd229">
    <mxGraphModel dx="1750" dy="915" grid="1" gridSize="10" guides="1" tooltips="1" connect="1" arrows="1" fold="1" page="1" pageScale="1" pageWidth="1100" pageHeight="850" background="none" math="0" shadow="0">
      <root>
        <mxCell id="0" />
        <mxCell id="1" parent="0" />
        <mxCell id="KKAwPkSLjg62LDA9pW_z-35" style="edgeStyle=orthogonalEdgeStyle;rounded=0;orthogonalLoop=1;jettySize=auto;html=1;exitX=1;exitY=0.25;exitDx=0;exitDy=0;entryX=1.333;entryY=-0.8;entryDx=0;entryDy=0;entryPerimeter=0;fontSize=22;" edge="1" parent="1" source="KKAwPkSLjg62LDA9pW_z-1" target="KKAwPkSLjg62LDA9pW_z-5">
          <mxGeometry relative="1" as="geometry" />
        </mxCell>
        <mxCell id="KKAwPkSLjg62LDA9pW_z-38" style="edgeStyle=orthogonalEdgeStyle;rounded=0;orthogonalLoop=1;jettySize=auto;html=1;exitX=0.5;exitY=1;exitDx=0;exitDy=0;entryX=0.5;entryY=0;entryDx=0;entryDy=0;fontSize=22;" edge="1" parent="1" source="KKAwPkSLjg62LDA9pW_z-1" target="KKAwPkSLjg62LDA9pW_z-37">
          <mxGeometry relative="1" as="geometry" />
        </mxCell>
        <mxCell id="KKAwPkSLjg62LDA9pW_z-1" value="&lt;font style=&quot;font-size: 22px;&quot;&gt;Users&lt;/font&gt;" style="rounded=0;whiteSpace=wrap;html=1;" vertex="1" parent="1">
          <mxGeometry x="200" y="110" width="120" height="60" as="geometry" />
        </mxCell>
        <mxCell id="KKAwPkSLjg62LDA9pW_z-61" style="edgeStyle=orthogonalEdgeStyle;rounded=0;orthogonalLoop=1;jettySize=auto;html=1;exitX=0.75;exitY=1;exitDx=0;exitDy=0;entryX=0.5;entryY=0;entryDx=0;entryDy=0;fontSize=22;" edge="1" parent="1" source="KKAwPkSLjg62LDA9pW_z-2" target="KKAwPkSLjg62LDA9pW_z-60">
          <mxGeometry relative="1" as="geometry" />
        </mxCell>
        <mxCell id="KKAwPkSLjg62LDA9pW_z-2" value="G_Contacts" style="rounded=0;whiteSpace=wrap;html=1;fontSize=22;" vertex="1" parent="1">
          <mxGeometry x="160" y="440" width="140" height="60" as="geometry" />
        </mxCell>
        <mxCell id="KKAwPkSLjg62LDA9pW_z-3" value="Messages" style="rounded=0;whiteSpace=wrap;html=1;fontSize=22;" vertex="1" parent="1">
          <mxGeometry x="740" y="90" width="120" height="60" as="geometry" />
        </mxCell>
        <mxCell id="KKAwPkSLjg62LDA9pW_z-20" style="edgeStyle=orthogonalEdgeStyle;rounded=0;orthogonalLoop=1;jettySize=auto;html=1;exitX=1;exitY=1;exitDx=0;exitDy=0;entryX=0;entryY=0;entryDx=0;entryDy=0;fontSize=22;" edge="1" parent="1" source="KKAwPkSLjg62LDA9pW_z-4" target="KKAwPkSLjg62LDA9pW_z-1">
          <mxGeometry relative="1" as="geometry" />
        </mxCell>
        <mxCell id="KKAwPkSLjg62LDA9pW_z-4" value="&lt;u&gt;UID&lt;/u&gt;" style="ellipse;whiteSpace=wrap;html=1;fontSize=22;" vertex="1" parent="1">
          <mxGeometry x="60" y="20" width="120" height="50" as="geometry" />
        </mxCell>
        <mxCell id="KKAwPkSLjg62LDA9pW_z-24" style="edgeStyle=orthogonalEdgeStyle;rounded=0;orthogonalLoop=1;jettySize=auto;html=1;exitX=0;exitY=0.5;exitDx=0;exitDy=0;entryX=1;entryY=0.5;entryDx=0;entryDy=0;fontSize=22;" edge="1" parent="1" source="KKAwPkSLjg62LDA9pW_z-5" target="KKAwPkSLjg62LDA9pW_z-1">
          <mxGeometry relative="1" as="geometry" />
        </mxCell>
        <mxCell id="KKAwPkSLjg62LDA9pW_z-5" value="Address" style="ellipse;whiteSpace=wrap;html=1;fontSize=22;" vertex="1" parent="1">
          <mxGeometry x="350" y="150" width="120" height="50" as="geometry" />
        </mxCell>
        <mxCell id="KKAwPkSLjg62LDA9pW_z-21" style="edgeStyle=orthogonalEdgeStyle;rounded=0;orthogonalLoop=1;jettySize=auto;html=1;exitX=1;exitY=0.5;exitDx=0;exitDy=0;entryX=0;entryY=0.5;entryDx=0;entryDy=0;fontSize=22;" edge="1" parent="1" source="KKAwPkSLjg62LDA9pW_z-6" target="KKAwPkSLjg62LDA9pW_z-1">
          <mxGeometry relative="1" as="geometry" />
        </mxCell>
        <mxCell id="KKAwPkSLjg62LDA9pW_z-6" value="Phone" style="ellipse;whiteSpace=wrap;html=1;fontSize=22;" vertex="1" parent="1">
          <mxGeometry x="60" y="115" width="120" height="50" as="geometry" />
        </mxCell>
        <mxCell id="KKAwPkSLjg62LDA9pW_z-23" style="edgeStyle=orthogonalEdgeStyle;rounded=0;orthogonalLoop=1;jettySize=auto;html=1;exitX=0;exitY=1;exitDx=0;exitDy=0;entryX=1;entryY=0;entryDx=0;entryDy=0;fontSize=22;" edge="1" parent="1" source="KKAwPkSLjg62LDA9pW_z-7" target="KKAwPkSLjg62LDA9pW_z-1">
          <mxGeometry relative="1" as="geometry" />
        </mxCell>
        <mxCell id="KKAwPkSLjg62LDA9pW_z-7" value="email" style="ellipse;whiteSpace=wrap;html=1;fontSize=22;" vertex="1" parent="1">
          <mxGeometry x="350" y="20" width="120" height="50" as="geometry" />
        </mxCell>
        <mxCell id="KKAwPkSLjg62LDA9pW_z-22" style="edgeStyle=orthogonalEdgeStyle;rounded=0;orthogonalLoop=1;jettySize=auto;html=1;exitX=0.5;exitY=1;exitDx=0;exitDy=0;entryX=0.5;entryY=0;entryDx=0;entryDy=0;fontSize=22;" edge="1" parent="1" source="KKAwPkSLjg62LDA9pW_z-8" target="KKAwPkSLjg62LDA9pW_z-1">
          <mxGeometry relative="1" as="geometry" />
        </mxCell>
        <mxCell id="KKAwPkSLjg62LDA9pW_z-8" value="Name" style="ellipse;whiteSpace=wrap;html=1;fontSize=22;" vertex="1" parent="1">
          <mxGeometry x="200" y="20" width="120" height="50" as="geometry" />
        </mxCell>
        <mxCell id="KKAwPkSLjg62LDA9pW_z-53" style="edgeStyle=orthogonalEdgeStyle;rounded=0;orthogonalLoop=1;jettySize=auto;html=1;exitX=1;exitY=0.5;exitDx=0;exitDy=0;entryX=0;entryY=0.5;entryDx=0;entryDy=0;fontSize=22;" edge="1" parent="1" source="KKAwPkSLjg62LDA9pW_z-9" target="KKAwPkSLjg62LDA9pW_z-2">
          <mxGeometry relative="1" as="geometry" />
        </mxCell>
        <mxCell id="KKAwPkSLjg62LDA9pW_z-9" value="&lt;u&gt;GCID&lt;/u&gt;" style="ellipse;whiteSpace=wrap;html=1;fontSize=22;" vertex="1" parent="1">
          <mxGeometry x="10" y="440" width="120" height="50" as="geometry" />
        </mxCell>
        <mxCell id="KKAwPkSLjg62LDA9pW_z-45" style="edgeStyle=orthogonalEdgeStyle;rounded=0;orthogonalLoop=1;jettySize=auto;html=1;exitX=0;exitY=0.5;exitDx=0;exitDy=0;entryX=1;entryY=0.5;entryDx=0;entryDy=0;fontSize=22;" edge="1" parent="1" source="KKAwPkSLjg62LDA9pW_z-12" target="KKAwPkSLjg62LDA9pW_z-3">
          <mxGeometry relative="1" as="geometry" />
        </mxCell>
        <mxCell id="KKAwPkSLjg62LDA9pW_z-12" value="email_from" style="ellipse;whiteSpace=wrap;html=1;fontSize=22;" vertex="1" parent="1">
          <mxGeometry x="890" y="95" width="120" height="50" as="geometry" />
        </mxCell>
        <mxCell id="KKAwPkSLjg62LDA9pW_z-30" style="edgeStyle=orthogonalEdgeStyle;rounded=0;orthogonalLoop=1;jettySize=auto;html=1;exitX=0;exitY=0;exitDx=0;exitDy=0;fontSize=22;" edge="1" parent="1" source="KKAwPkSLjg62LDA9pW_z-16">
          <mxGeometry relative="1" as="geometry">
            <mxPoint x="850" y="160" as="targetPoint" />
          </mxGeometry>
        </mxCell>
        <mxCell id="KKAwPkSLjg62LDA9pW_z-16" value="date_send" style="ellipse;whiteSpace=wrap;html=1;fontSize=22;" vertex="1" parent="1">
          <mxGeometry x="880" y="175" width="120" height="50" as="geometry" />
        </mxCell>
        <mxCell id="KKAwPkSLjg62LDA9pW_z-29" style="edgeStyle=orthogonalEdgeStyle;rounded=0;orthogonalLoop=1;jettySize=auto;html=1;exitX=0.5;exitY=0;exitDx=0;exitDy=0;entryX=0.5;entryY=1;entryDx=0;entryDy=0;fontSize=22;" edge="1" parent="1" source="KKAwPkSLjg62LDA9pW_z-17" target="KKAwPkSLjg62LDA9pW_z-3">
          <mxGeometry relative="1" as="geometry" />
        </mxCell>
        <mxCell id="KKAwPkSLjg62LDA9pW_z-17" value="date_read" style="ellipse;whiteSpace=wrap;html=1;fontSize=22;" vertex="1" parent="1">
          <mxGeometry x="740" y="220" width="120" height="50" as="geometry" />
        </mxCell>
        <mxCell id="KKAwPkSLjg62LDA9pW_z-27" style="edgeStyle=orthogonalEdgeStyle;rounded=0;orthogonalLoop=1;jettySize=auto;html=1;exitX=1;exitY=0;exitDx=0;exitDy=0;entryX=0;entryY=0.5;entryDx=0;entryDy=0;fontSize=22;" edge="1" parent="1" source="KKAwPkSLjg62LDA9pW_z-18" target="KKAwPkSLjg62LDA9pW_z-3">
          <mxGeometry relative="1" as="geometry" />
        </mxCell>
        <mxCell id="KKAwPkSLjg62LDA9pW_z-18" value="subject" style="ellipse;whiteSpace=wrap;html=1;fontSize=22;" vertex="1" parent="1">
          <mxGeometry x="590" y="135" width="120" height="50" as="geometry" />
        </mxCell>
        <mxCell id="KKAwPkSLjg62LDA9pW_z-28" style="edgeStyle=orthogonalEdgeStyle;rounded=0;orthogonalLoop=1;jettySize=auto;html=1;exitX=1;exitY=0;exitDx=0;exitDy=0;fontSize=22;" edge="1" parent="1" source="KKAwPkSLjg62LDA9pW_z-19">
          <mxGeometry relative="1" as="geometry">
            <mxPoint x="740" y="150" as="targetPoint" />
          </mxGeometry>
        </mxCell>
        <mxCell id="KKAwPkSLjg62LDA9pW_z-19" value="message" style="ellipse;whiteSpace=wrap;html=1;fontSize=22;" vertex="1" parent="1">
          <mxGeometry x="600" y="195" width="120" height="50" as="geometry" />
        </mxCell>
        <mxCell id="KKAwPkSLjg62LDA9pW_z-36" style="edgeStyle=orthogonalEdgeStyle;rounded=0;orthogonalLoop=1;jettySize=auto;html=1;exitX=1;exitY=0.5;exitDx=0;exitDy=0;entryX=0;entryY=0.5;entryDx=0;entryDy=0;fontSize=22;" edge="1" parent="1" source="KKAwPkSLjg62LDA9pW_z-34" target="KKAwPkSLjg62LDA9pW_z-3">
          <mxGeometry relative="1" as="geometry" />
        </mxCell>
        <mxCell id="KKAwPkSLjg62LDA9pW_z-34" value="1:N" style="rhombus;whiteSpace=wrap;html=1;fontSize=22;" vertex="1" parent="1">
          <mxGeometry x="500" y="70" width="80" height="80" as="geometry" />
        </mxCell>
        <mxCell id="KKAwPkSLjg62LDA9pW_z-56" style="edgeStyle=orthogonalEdgeStyle;rounded=0;orthogonalLoop=1;jettySize=auto;html=1;exitX=0.5;exitY=1;exitDx=0;exitDy=0;entryX=0.5;entryY=0;entryDx=0;entryDy=0;fontSize=22;" edge="1" parent="1" source="KKAwPkSLjg62LDA9pW_z-37" target="KKAwPkSLjg62LDA9pW_z-46">
          <mxGeometry relative="1" as="geometry" />
        </mxCell>
        <mxCell id="KKAwPkSLjg62LDA9pW_z-57" style="edgeStyle=orthogonalEdgeStyle;rounded=0;orthogonalLoop=1;jettySize=auto;html=1;exitX=0.5;exitY=1;exitDx=0;exitDy=0;entryX=0.5;entryY=0;entryDx=0;entryDy=0;fontSize=22;" edge="1" parent="1" source="KKAwPkSLjg62LDA9pW_z-37" target="KKAwPkSLjg62LDA9pW_z-2">
          <mxGeometry relative="1" as="geometry" />
        </mxCell>
        <mxCell id="KKAwPkSLjg62LDA9pW_z-37" value="1:N" style="rhombus;whiteSpace=wrap;html=1;fontSize=22;" vertex="1" parent="1">
          <mxGeometry x="220" y="225" width="80" height="80" as="geometry" />
        </mxCell>
        <mxCell id="KKAwPkSLjg62LDA9pW_z-42" style="edgeStyle=orthogonalEdgeStyle;rounded=0;orthogonalLoop=1;jettySize=auto;html=1;exitX=1;exitY=1;exitDx=0;exitDy=0;entryX=0;entryY=0;entryDx=0;entryDy=0;fontSize=22;" edge="1" parent="1" source="KKAwPkSLjg62LDA9pW_z-41" target="KKAwPkSLjg62LDA9pW_z-3">
          <mxGeometry relative="1" as="geometry" />
        </mxCell>
        <mxCell id="KKAwPkSLjg62LDA9pW_z-41" value="&lt;u&gt;MID&lt;/u&gt;" style="ellipse;whiteSpace=wrap;html=1;fontSize=22;" vertex="1" parent="1">
          <mxGeometry x="600" y="10" width="120" height="50" as="geometry" />
        </mxCell>
        <mxCell id="KKAwPkSLjg62LDA9pW_z-44" style="edgeStyle=orthogonalEdgeStyle;rounded=0;orthogonalLoop=1;jettySize=auto;html=1;exitX=0.5;exitY=1;exitDx=0;exitDy=0;entryX=0.5;entryY=0;entryDx=0;entryDy=0;fontSize=22;" edge="1" parent="1" source="KKAwPkSLjg62LDA9pW_z-43" target="KKAwPkSLjg62LDA9pW_z-3">
          <mxGeometry relative="1" as="geometry" />
        </mxCell>
        <mxCell id="KKAwPkSLjg62LDA9pW_z-43" value="UID" style="ellipse;whiteSpace=wrap;html=1;fontSize=22;" vertex="1" parent="1">
          <mxGeometry x="740" y="10" width="120" height="50" as="geometry" />
        </mxCell>
        <mxCell id="KKAwPkSLjg62LDA9pW_z-62" style="edgeStyle=orthogonalEdgeStyle;rounded=0;orthogonalLoop=1;jettySize=auto;html=1;exitX=0.25;exitY=1;exitDx=0;exitDy=0;fontSize=22;" edge="1" parent="1" source="KKAwPkSLjg62LDA9pW_z-46">
          <mxGeometry relative="1" as="geometry">
            <mxPoint x="360" y="580" as="targetPoint" />
          </mxGeometry>
        </mxCell>
        <mxCell id="KKAwPkSLjg62LDA9pW_z-63" value="" style="edgeStyle=orthogonalEdgeStyle;rounded=0;orthogonalLoop=1;jettySize=auto;html=1;fontSize=22;" edge="1" parent="1" source="KKAwPkSLjg62LDA9pW_z-46" target="KKAwPkSLjg62LDA9pW_z-48">
          <mxGeometry relative="1" as="geometry" />
        </mxCell>
        <mxCell id="KKAwPkSLjg62LDA9pW_z-46" value="Contacts" style="rounded=0;whiteSpace=wrap;html=1;fontSize=22;" vertex="1" parent="1">
          <mxGeometry x="495" y="440" width="120" height="60" as="geometry" />
        </mxCell>
        <mxCell id="KKAwPkSLjg62LDA9pW_z-64" style="edgeStyle=orthogonalEdgeStyle;rounded=0;orthogonalLoop=1;jettySize=auto;html=1;exitX=0;exitY=0;exitDx=0;exitDy=0;entryX=1;entryY=1;entryDx=0;entryDy=0;fontSize=22;" edge="1" parent="1" source="KKAwPkSLjg62LDA9pW_z-47" target="KKAwPkSLjg62LDA9pW_z-46">
          <mxGeometry relative="1" as="geometry" />
        </mxCell>
        <mxCell id="KKAwPkSLjg62LDA9pW_z-47" value="Address" style="ellipse;whiteSpace=wrap;html=1;fontSize=22;" vertex="1" parent="1">
          <mxGeometry x="640" y="540" width="120" height="50" as="geometry" />
        </mxCell>
        <mxCell id="KKAwPkSLjg62LDA9pW_z-48" value="Phone" style="ellipse;whiteSpace=wrap;html=1;fontSize=22;" vertex="1" parent="1">
          <mxGeometry x="510" y="570" width="120" height="50" as="geometry" />
        </mxCell>
        <mxCell id="KKAwPkSLjg62LDA9pW_z-65" style="edgeStyle=orthogonalEdgeStyle;rounded=0;orthogonalLoop=1;jettySize=auto;html=1;exitX=0;exitY=0.5;exitDx=0;exitDy=0;entryX=1;entryY=0.5;entryDx=0;entryDy=0;fontSize=22;" edge="1" parent="1" source="KKAwPkSLjg62LDA9pW_z-49" target="KKAwPkSLjg62LDA9pW_z-46">
          <mxGeometry relative="1" as="geometry" />
        </mxCell>
        <mxCell id="KKAwPkSLjg62LDA9pW_z-49" value="email" style="ellipse;whiteSpace=wrap;html=1;fontSize=22;" vertex="1" parent="1">
          <mxGeometry x="640" y="445" width="120" height="50" as="geometry" />
        </mxCell>
        <mxCell id="KKAwPkSLjg62LDA9pW_z-66" style="edgeStyle=orthogonalEdgeStyle;rounded=0;orthogonalLoop=1;jettySize=auto;html=1;exitX=0;exitY=1;exitDx=0;exitDy=0;entryX=1;entryY=0;entryDx=0;entryDy=0;fontSize=22;" edge="1" parent="1" source="KKAwPkSLjg62LDA9pW_z-50" target="KKAwPkSLjg62LDA9pW_z-46">
          <mxGeometry relative="1" as="geometry" />
        </mxCell>
        <mxCell id="KKAwPkSLjg62LDA9pW_z-50" value="Name" style="ellipse;whiteSpace=wrap;html=1;fontSize=22;" vertex="1" parent="1">
          <mxGeometry x="640" y="360" width="120" height="50" as="geometry" />
        </mxCell>
        <mxCell id="KKAwPkSLjg62LDA9pW_z-52" style="edgeStyle=orthogonalEdgeStyle;rounded=0;orthogonalLoop=1;jettySize=auto;html=1;exitX=1;exitY=0.5;exitDx=0;exitDy=0;entryX=0.5;entryY=1;entryDx=0;entryDy=0;fontSize=22;" edge="1" parent="1" source="KKAwPkSLjg62LDA9pW_z-51" target="KKAwPkSLjg62LDA9pW_z-2">
          <mxGeometry relative="1" as="geometry" />
        </mxCell>
        <mxCell id="KKAwPkSLjg62LDA9pW_z-51" value="UID" style="ellipse;whiteSpace=wrap;html=1;fontSize=22;" vertex="1" parent="1">
          <mxGeometry x="50" y="540" width="120" height="50" as="geometry" />
        </mxCell>
        <mxCell id="KKAwPkSLjg62LDA9pW_z-55" style="edgeStyle=orthogonalEdgeStyle;rounded=0;orthogonalLoop=1;jettySize=auto;html=1;exitX=1;exitY=0.5;exitDx=0;exitDy=0;entryX=0;entryY=0.5;entryDx=0;entryDy=0;fontSize=22;" edge="1" parent="1" source="KKAwPkSLjg62LDA9pW_z-54" target="KKAwPkSLjg62LDA9pW_z-46">
          <mxGeometry relative="1" as="geometry" />
        </mxCell>
        <mxCell id="KKAwPkSLjg62LDA9pW_z-54" value="&lt;u&gt;CID&lt;/u&gt;" style="ellipse;whiteSpace=wrap;html=1;fontSize=22;" vertex="1" parent="1">
          <mxGeometry x="350" y="445" width="120" height="50" as="geometry" />
        </mxCell>
        <mxCell id="KKAwPkSLjg62LDA9pW_z-58" value="Grups_Contacts" style="rounded=0;whiteSpace=wrap;html=1;fontSize=22;" vertex="1" parent="1">
          <mxGeometry x="265" y="720" width="190" height="60" as="geometry" />
        </mxCell>
        <mxCell id="KKAwPkSLjg62LDA9pW_z-67" style="edgeStyle=orthogonalEdgeStyle;rounded=0;orthogonalLoop=1;jettySize=auto;html=1;exitX=0.5;exitY=1;exitDx=0;exitDy=0;entryX=0.5;entryY=0;entryDx=0;entryDy=0;fontSize=22;" edge="1" parent="1" source="KKAwPkSLjg62LDA9pW_z-60" target="KKAwPkSLjg62LDA9pW_z-58">
          <mxGeometry relative="1" as="geometry" />
        </mxCell>
        <mxCell id="KKAwPkSLjg62LDA9pW_z-60" value="N:N" style="rhombus;whiteSpace=wrap;html=1;fontSize=22;" vertex="1" parent="1">
          <mxGeometry x="320" y="580" width="80" height="80" as="geometry" />
        </mxCell>
      </root>
    </mxGraphModel>
  </diagram>
</mxfile>
